<mxfile host="app.diagrams.net" modified="2022-02-07T10:40:34.853Z" agent="5.0 (Windows NT 10.0; Win64; x64) AppleWebKit/537.36 (KHTML, like Gecko) Chrome/98.0.4758.80 Safari/537.36 Edg/98.0.1108.43" etag="AhuPI5Xc_NjanlIKKrdn" version="16.4.7" type="github">
  <diagram id="C5RBs43oDa-KdzZeNtuy" name="Page-1">
    <mxGraphModel dx="1422" dy="794" grid="1" gridSize="10" guides="1" tooltips="1" connect="1" arrows="1" fold="1" page="1" pageScale="1" pageWidth="827" pageHeight="1169" math="0" shadow="0">
      <root>
        <mxCell id="WIyWlLk6GJQsqaUBKTNV-0" />
        <mxCell id="WIyWlLk6GJQsqaUBKTNV-1" parent="WIyWlLk6GJQsqaUBKTNV-0" />
        <mxCell id="f0iEW2p2yODUEeNWrV6Q-0" value="" style="swimlane;startSize=0;" vertex="1" parent="WIyWlLk6GJQsqaUBKTNV-1">
          <mxGeometry x="90" y="30" width="680" height="660" as="geometry" />
        </mxCell>
        <mxCell id="f0iEW2p2yODUEeNWrV6Q-3" value="author" style="text;html=1;align=center;verticalAlign=middle;resizable=0;points=[];autosize=1;strokeColor=none;fillColor=none;" vertex="1" parent="f0iEW2p2yODUEeNWrV6Q-0">
          <mxGeometry x="120" y="10" width="50" height="20" as="geometry" />
        </mxCell>
        <mxCell id="f0iEW2p2yODUEeNWrV6Q-6" value="System" style="text;html=1;align=center;verticalAlign=middle;resizable=0;points=[];autosize=1;strokeColor=none;fillColor=none;" vertex="1" parent="f0iEW2p2yODUEeNWrV6Q-0">
          <mxGeometry x="470" y="10" width="60" height="20" as="geometry" />
        </mxCell>
        <mxCell id="f0iEW2p2yODUEeNWrV6Q-8" value="author" style="shape=umlActor;verticalLabelPosition=bottom;verticalAlign=top;html=1;outlineConnect=0;" vertex="1" parent="f0iEW2p2yODUEeNWrV6Q-0">
          <mxGeometry x="140" y="50" width="30" height="60" as="geometry" />
        </mxCell>
        <mxCell id="f0iEW2p2yODUEeNWrV6Q-19" style="edgeStyle=orthogonalEdgeStyle;rounded=0;orthogonalLoop=1;jettySize=auto;html=1;" edge="1" parent="f0iEW2p2yODUEeNWrV6Q-0" source="f0iEW2p2yODUEeNWrV6Q-10" target="f0iEW2p2yODUEeNWrV6Q-17">
          <mxGeometry relative="1" as="geometry" />
        </mxCell>
        <mxCell id="f0iEW2p2yODUEeNWrV6Q-10" value="edit email" style="whiteSpace=wrap;html=1;verticalAlign=top;" vertex="1" parent="f0iEW2p2yODUEeNWrV6Q-0">
          <mxGeometry x="95" y="150" width="120" height="60" as="geometry" />
        </mxCell>
        <mxCell id="f0iEW2p2yODUEeNWrV6Q-11" value="" style="edgeStyle=orthogonalEdgeStyle;rounded=0;orthogonalLoop=1;jettySize=auto;html=1;" edge="1" parent="f0iEW2p2yODUEeNWrV6Q-0" source="f0iEW2p2yODUEeNWrV6Q-8" target="f0iEW2p2yODUEeNWrV6Q-10">
          <mxGeometry relative="1" as="geometry" />
        </mxCell>
        <mxCell id="f0iEW2p2yODUEeNWrV6Q-54" style="edgeStyle=orthogonalEdgeStyle;rounded=0;orthogonalLoop=1;jettySize=auto;html=1;exitX=0.5;exitY=0;exitDx=0;exitDy=0;entryX=1;entryY=0.3333333333333333;entryDx=0;entryDy=0;entryPerimeter=0;" edge="1" parent="f0iEW2p2yODUEeNWrV6Q-0" source="f0iEW2p2yODUEeNWrV6Q-17" target="f0iEW2p2yODUEeNWrV6Q-8">
          <mxGeometry relative="1" as="geometry" />
        </mxCell>
        <mxCell id="f0iEW2p2yODUEeNWrV6Q-17" value="show author email&lt;br&gt;(HTML)" style="whiteSpace=wrap;html=1;" vertex="1" parent="f0iEW2p2yODUEeNWrV6Q-0">
          <mxGeometry x="440" y="150" width="120" height="60" as="geometry" />
        </mxCell>
        <mxCell id="f0iEW2p2yODUEeNWrV6Q-25" value="save in database" style="rounded=0;whiteSpace=wrap;html=1;direction=west;" vertex="1" parent="f0iEW2p2yODUEeNWrV6Q-0">
          <mxGeometry x="440" y="305" width="120" height="60" as="geometry" />
        </mxCell>
        <mxCell id="f0iEW2p2yODUEeNWrV6Q-29" value="check in database" style="rhombus;whiteSpace=wrap;html=1;rounded=0;" vertex="1" parent="f0iEW2p2yODUEeNWrV6Q-0">
          <mxGeometry x="420" y="460" width="160" height="80" as="geometry" />
        </mxCell>
        <mxCell id="f0iEW2p2yODUEeNWrV6Q-62" style="edgeStyle=orthogonalEdgeStyle;rounded=0;orthogonalLoop=1;jettySize=auto;html=1;entryX=0.5;entryY=1;entryDx=0;entryDy=0;" edge="1" parent="f0iEW2p2yODUEeNWrV6Q-0" source="f0iEW2p2yODUEeNWrV6Q-31" target="f0iEW2p2yODUEeNWrV6Q-22">
          <mxGeometry relative="1" as="geometry" />
        </mxCell>
        <mxCell id="f0iEW2p2yODUEeNWrV6Q-31" value="end of process" style="rounded=0;whiteSpace=wrap;html=1;" vertex="1" parent="f0iEW2p2yODUEeNWrV6Q-0">
          <mxGeometry x="340" y="560" width="120" height="60" as="geometry" />
        </mxCell>
        <mxCell id="f0iEW2p2yODUEeNWrV6Q-51" style="edgeStyle=orthogonalEdgeStyle;rounded=0;orthogonalLoop=1;jettySize=auto;html=1;entryX=1;entryY=0.5;entryDx=0;entryDy=0;" edge="1" parent="f0iEW2p2yODUEeNWrV6Q-0" source="f0iEW2p2yODUEeNWrV6Q-32" target="f0iEW2p2yODUEeNWrV6Q-17">
          <mxGeometry relative="1" as="geometry" />
        </mxCell>
        <mxCell id="f0iEW2p2yODUEeNWrV6Q-32" value="create and send confirm email to author" style="rounded=0;whiteSpace=wrap;html=1;" vertex="1" parent="f0iEW2p2yODUEeNWrV6Q-0">
          <mxGeometry x="550" y="560" width="120" height="60" as="geometry" />
        </mxCell>
        <mxCell id="f0iEW2p2yODUEeNWrV6Q-35" value="" style="endArrow=none;html=1;rounded=0;entryX=0;entryY=1;entryDx=0;entryDy=0;exitX=0.75;exitY=0;exitDx=0;exitDy=0;" edge="1" parent="f0iEW2p2yODUEeNWrV6Q-0" source="f0iEW2p2yODUEeNWrV6Q-31" target="f0iEW2p2yODUEeNWrV6Q-29">
          <mxGeometry width="50" height="50" relative="1" as="geometry">
            <mxPoint x="400" y="560" as="sourcePoint" />
            <mxPoint x="450" y="510" as="targetPoint" />
          </mxGeometry>
        </mxCell>
        <mxCell id="f0iEW2p2yODUEeNWrV6Q-22" value="write&lt;br&gt;Title and&amp;nbsp;&lt;br&gt;attach to send" style="rhombus;whiteSpace=wrap;html=1;verticalAlign=top;" vertex="1" parent="f0iEW2p2yODUEeNWrV6Q-0">
          <mxGeometry x="90" y="290" width="130" height="90" as="geometry" />
        </mxCell>
        <mxCell id="f0iEW2p2yODUEeNWrV6Q-23" value="" style="edgeStyle=orthogonalEdgeStyle;rounded=0;orthogonalLoop=1;jettySize=auto;html=1;exitX=0.5;exitY=1;exitDx=0;exitDy=0;" edge="1" parent="f0iEW2p2yODUEeNWrV6Q-0" source="f0iEW2p2yODUEeNWrV6Q-10" target="f0iEW2p2yODUEeNWrV6Q-22">
          <mxGeometry relative="1" as="geometry">
            <mxPoint x="155" y="300" as="sourcePoint" />
          </mxGeometry>
        </mxCell>
        <mxCell id="f0iEW2p2yODUEeNWrV6Q-26" style="edgeStyle=orthogonalEdgeStyle;rounded=0;orthogonalLoop=1;jettySize=auto;html=1;" edge="1" parent="f0iEW2p2yODUEeNWrV6Q-0" source="f0iEW2p2yODUEeNWrV6Q-22" target="f0iEW2p2yODUEeNWrV6Q-25">
          <mxGeometry relative="1" as="geometry" />
        </mxCell>
        <mxCell id="f0iEW2p2yODUEeNWrV6Q-49" value="&amp;lt;&amp;lt;include&amp;gt;&amp;gt;" style="text;html=1;align=center;verticalAlign=middle;resizable=0;points=[];autosize=1;strokeColor=none;fillColor=none;" vertex="1" parent="f0iEW2p2yODUEeNWrV6Q-0">
          <mxGeometry x="230" y="160" width="80" height="20" as="geometry" />
        </mxCell>
        <mxCell id="f0iEW2p2yODUEeNWrV6Q-53" value="&amp;lt;&amp;lt;include&amp;gt;&amp;gt;" style="text;html=1;align=center;verticalAlign=middle;resizable=0;points=[];autosize=1;strokeColor=none;fillColor=none;rotation=0;" vertex="1" parent="f0iEW2p2yODUEeNWrV6Q-0">
          <mxGeometry x="425" y="400" width="80" height="20" as="geometry" />
        </mxCell>
        <mxCell id="f0iEW2p2yODUEeNWrV6Q-47" value="&amp;lt;&amp;lt;include&amp;gt;&amp;gt;" style="text;html=1;align=center;verticalAlign=middle;resizable=0;points=[];autosize=1;strokeColor=none;fillColor=none;rotation=0;" vertex="1" parent="f0iEW2p2yODUEeNWrV6Q-0">
          <mxGeometry x="80" y="240" width="80" height="20" as="geometry" />
        </mxCell>
        <mxCell id="f0iEW2p2yODUEeNWrV6Q-57" value="" style="endArrow=none;html=1;rounded=0;entryX=1;entryY=1;entryDx=0;entryDy=0;exitX=0.25;exitY=0;exitDx=0;exitDy=0;" edge="1" parent="f0iEW2p2yODUEeNWrV6Q-0" source="f0iEW2p2yODUEeNWrV6Q-32" target="f0iEW2p2yODUEeNWrV6Q-29">
          <mxGeometry width="50" height="50" relative="1" as="geometry">
            <mxPoint x="540" y="570" as="sourcePoint" />
            <mxPoint x="590" y="520" as="targetPoint" />
          </mxGeometry>
        </mxCell>
        <mxCell id="f0iEW2p2yODUEeNWrV6Q-59" value="" style="endArrow=classic;startArrow=classic;html=1;rounded=0;exitX=0.5;exitY=0;exitDx=0;exitDy=0;entryX=0.5;entryY=0;entryDx=0;entryDy=0;" edge="1" parent="f0iEW2p2yODUEeNWrV6Q-0" source="f0iEW2p2yODUEeNWrV6Q-29" target="f0iEW2p2yODUEeNWrV6Q-25">
          <mxGeometry width="50" height="50" relative="1" as="geometry">
            <mxPoint x="470" y="440" as="sourcePoint" />
            <mxPoint x="520" y="390" as="targetPoint" />
          </mxGeometry>
        </mxCell>
        <mxCell id="f0iEW2p2yODUEeNWrV6Q-55" value="&amp;lt;&amp;lt;include&amp;gt;&amp;gt;" style="text;html=1;align=center;verticalAlign=middle;resizable=0;points=[];autosize=1;strokeColor=none;fillColor=none;" vertex="1" parent="f0iEW2p2yODUEeNWrV6Q-0">
          <mxGeometry x="350" y="50" width="80" height="20" as="geometry" />
        </mxCell>
        <mxCell id="f0iEW2p2yODUEeNWrV6Q-48" value="&amp;lt;&amp;lt;include&amp;gt;&amp;gt;" style="text;html=1;align=center;verticalAlign=middle;resizable=0;points=[];autosize=1;strokeColor=none;fillColor=none;" vertex="1" parent="f0iEW2p2yODUEeNWrV6Q-0">
          <mxGeometry x="220" y="320" width="80" height="20" as="geometry" />
        </mxCell>
        <mxCell id="f0iEW2p2yODUEeNWrV6Q-60" value="&amp;lt;&amp;lt;include&amp;gt;&amp;gt;" style="text;html=1;align=center;verticalAlign=middle;resizable=0;points=[];autosize=1;strokeColor=none;fillColor=none;" vertex="1" parent="f0iEW2p2yODUEeNWrV6Q-0">
          <mxGeometry x="530" y="250" width="80" height="20" as="geometry" />
        </mxCell>
        <mxCell id="f0iEW2p2yODUEeNWrV6Q-61" value="unverified" style="text;html=1;align=center;verticalAlign=middle;resizable=0;points=[];autosize=1;strokeColor=none;fillColor=none;" vertex="1" parent="f0iEW2p2yODUEeNWrV6Q-0">
          <mxGeometry x="370" y="535" width="70" height="20" as="geometry" />
        </mxCell>
        <mxCell id="f0iEW2p2yODUEeNWrV6Q-64" value="verified" style="text;html=1;align=center;verticalAlign=middle;resizable=0;points=[];autosize=1;strokeColor=none;fillColor=none;" vertex="1" parent="f0iEW2p2yODUEeNWrV6Q-0">
          <mxGeometry x="510" y="535" width="50" height="20" as="geometry" />
        </mxCell>
        <mxCell id="f0iEW2p2yODUEeNWrV6Q-1" value="" style="endArrow=none;html=1;rounded=0;exitX=0.488;exitY=1.005;exitDx=0;exitDy=0;exitPerimeter=0;entryX=0.485;entryY=0;entryDx=0;entryDy=0;entryPerimeter=0;" edge="1" parent="WIyWlLk6GJQsqaUBKTNV-1" source="f0iEW2p2yODUEeNWrV6Q-0" target="f0iEW2p2yODUEeNWrV6Q-0">
          <mxGeometry width="50" height="50" relative="1" as="geometry">
            <mxPoint x="400" y="100" as="sourcePoint" />
            <mxPoint x="450" y="50" as="targetPoint" />
            <Array as="points">
              <mxPoint x="420" y="340" />
              <mxPoint x="420" y="320" />
              <mxPoint x="420" y="330" />
              <mxPoint x="420" y="310" />
            </Array>
          </mxGeometry>
        </mxCell>
        <mxCell id="f0iEW2p2yODUEeNWrV6Q-2" value="" style="endArrow=none;html=1;rounded=0;exitX=-0.001;exitY=0.047;exitDx=0;exitDy=0;exitPerimeter=0;" edge="1" parent="WIyWlLk6GJQsqaUBKTNV-1" source="f0iEW2p2yODUEeNWrV6Q-0">
          <mxGeometry width="50" height="50" relative="1" as="geometry">
            <mxPoint x="100" y="130" as="sourcePoint" />
            <mxPoint x="770" y="60" as="targetPoint" />
            <Array as="points">
              <mxPoint x="730" y="60" />
            </Array>
          </mxGeometry>
        </mxCell>
        <mxCell id="f0iEW2p2yODUEeNWrV6Q-63" value="&amp;lt;&amp;lt;include&amp;gt;&amp;gt;" style="text;html=1;align=center;verticalAlign=middle;resizable=0;points=[];autosize=1;strokeColor=none;fillColor=none;" vertex="1" parent="WIyWlLk6GJQsqaUBKTNV-1">
          <mxGeometry x="250" y="590" width="80" height="20" as="geometry" />
        </mxCell>
      </root>
    </mxGraphModel>
  </diagram>
</mxfile>
